<?xml version="1.0" standalone="no"?>
<!DOCTYPE svg PUBLIC "-//W3C//DTD SVG 20010904//EN"
 "http://www.w3.org/TR/2001/REC-SVG-20010904/DTD/svg10.dtd">
<svg version="1.0" xmlns="http://www.w3.org/2000/svg"
 width="1151.000000pt" height="332.000000pt" viewBox="0 0 1151.000000 332.000000"
 preserveAspectRatio="xMidYMid meet">

<g transform="translate(0.000000,332.000000) scale(0.100000,-0.100000)"
fill="#000000" stroke="none">
<path d="M1291 3299 c-105 -14 -290 -64 -396 -106 -388 -154 -682 -462 -810
-846 -60 -182 -70 -249 -69 -477 0 -226 13 -309 74 -493 155 -462 562 -806
1085 -917 129 -27 446 -38 592 -21 298 37 600 142 813 283 l80 52 0 568 0 568
-290 0 -290 0 0 -409 0 -408 -72 -33 c-96 -42 -199 -68 -328 -81 -203 -21
-374 7 -545 92 -224 109 -364 278 -441 534 -25 84 -27 103 -28 270 0 168 2
186 28 270 108 354 375 569 766 616 179 21 372 -8 526 -80 100 -47 157 -85
246 -163 43 -38 72 -57 80 -52 7 5 100 88 205 187 168 156 191 181 183 198
-16 28 -172 162 -251 214 -153 101 -336 174 -539 217 -111 23 -494 33 -619 17z"/>
<path d="M5578 3106 c-67 -18 -123 -59 -163 -119 -36 -55 -60 -139 -53 -188 4
-26 1 -30 -31 -39 -188 -49 -1783 -441 -1785 -439 -80 129 -129 170 -224 190
-208 43 -392 -137 -354 -345 48 -258 384 -331 534 -117 39 55 63 140 56 192
-4 26 -1 30 31 39 179 47 1783 441 1785 439 82 -132 127 -169 225 -190 167
-35 317 67 355 242 l5 25 498 -91 498 -91 15 -60 c43 -161 186 -255 344 -226
210 39 311 279 192 457 -115 174 -369 176 -489 5 -20 -30 -40 -72 -44 -93 -5
-36 -8 -38 -32 -34 -14 3 -240 45 -501 92 -261 48 -477 89 -478 90 -2 2 -8 23
-13 47 -22 98 -111 188 -211 215 -63 16 -98 16 -160 -1z"/>
<path d="M8773 2266 c-97 -31 -149 -105 -141 -201 9 -112 93 -181 218 -179
101 2 171 45 205 126 47 113 -18 228 -145 257 -58 13 -85 13 -137 -3z"/>
<path d="M9730 2175 c-205 -58 -320 -211 -320 -427 l0 -68 -95 0 -95 0 0 -135
0 -135 95 0 95 0 0 -470 0 -470 175 0 175 0 0 470 0 470 155 0 155 0 0 135 0
135 -161 0 -162 0 6 66 c7 75 34 127 77 149 38 20 139 19 190 -1 23 -9 42 -15
44 -13 12 13 86 235 82 245 -3 7 -31 22 -63 34 -77 30 -271 38 -353 15z"/>
<path d="M7080 1320 l0 -850 180 0 180 0 0 348 c0 387 4 416 63 494 20 27 55
54 92 73 51 26 69 30 139 30 93 0 149 -24 197 -85 53 -66 59 -118 59 -507 l0
-353 175 0 175 0 0 395 c0 323 -3 410 -16 473 -50 243 -227 382 -484 382 -147
0 -282 -43 -369 -115 l-31 -27 0 296 0 296 -180 0 -180 0 0 -850z"/>
<path d="M3711 1704 c-86 -18 -159 -55 -220 -110 l-51 -46 0 76 0 76 -170 0
-170 0 0 -615 0 -615 180 0 179 0 3 358 c3 339 4 359 24 403 27 59 79 110 140
140 38 18 71 24 142 27 l92 4 0 159 0 159 -42 -1 c-24 0 -72 -7 -107 -15z"/>
<path d="M4430 1714 c-127 -17 -362 -102 -376 -137 -3 -8 22 -67 56 -130 l61
-116 47 29 c118 72 306 101 428 65 98 -28 164 -112 164 -207 l0 -28 -205 0
c-223 0 -314 -12 -410 -55 -68 -30 -130 -86 -163 -149 -24 -46 -27 -61 -27
-156 0 -96 3 -110 28 -158 79 -150 224 -218 452 -210 152 5 229 33 300 109 25
27 48 49 50 49 3 0 5 -34 5 -75 l0 -75 166 0 166 0 -5 413 c-3 345 -7 421 -21
470 -50 178 -141 273 -319 334 -62 22 -93 26 -217 28 -80 2 -161 1 -180 -1z
m380 -797 c0 -66 -3 -78 -30 -115 -77 -107 -247 -144 -361 -80 -101 56 -103
187 -4 241 38 20 81 25 238 26 l157 1 0 -73z"/>
<path d="M6078 1704 c-73 -17 -148 -55 -197 -99 -21 -19 -41 -35 -45 -35 -3 0
-6 29 -6 65 l0 65 -165 0 -165 0 0 -835 0 -835 175 0 175 0 0 285 0 284 65
-49 c90 -68 165 -90 309 -90 132 0 201 16 299 67 138 73 231 186 284 348 23
69 26 97 26 205 1 181 -34 292 -129 419 -130 174 -397 261 -626 205z m242
-310 c179 -97 216 -391 71 -557 -69 -78 -197 -112 -311 -83 -150 39 -229 155
-230 338 0 142 51 241 155 302 85 50 223 50 315 0z"/>
<path d="M8670 1085 l0 -615 180 0 180 0 0 615 0 615 -180 0 -180 0 0 -615z"/>
<path d="M10103 1688 c3 -7 122 -287 266 -621 l262 -608 -28 -51 c-65 -120
-178 -147 -321 -77 -35 17 -65 29 -66 27 -2 -1 -31 -56 -66 -122 -50 -95 -60
-120 -49 -127 61 -41 107 -62 174 -79 182 -47 379 -8 495 96 86 78 121 149
425 863 163 382 298 698 301 703 3 5 -72 7 -167 6 l-173 -3 -168 -405 c-93
-223 -172 -408 -176 -412 -4 -4 -84 178 -178 405 l-170 412 -183 3 c-145 2
-182 0 -178 -10z"/>
</g>
</svg>
